<svg width="390" height="844" viewBox="0 0 390 844" xmlns="http://www.w3.org/2000/svg" font-family="system-ui, -apple-system, sans-serif">
  <rect width="390" height="844" fill="#f5f5f7"/>

  <!-- Header -->
  <rect width="390" height="72" fill="#ffffff"/>
  <rect x="0" y="71" width="390" height="1" fill="#e0e0e8"/>
  <text x="24" y="44" fill="#1B2559" opacity="0.5" font-size="22">‹</text>
  <text x="195" y="44" text-anchor="middle" fill="#1B2559" font-size="16" font-weight="700" letter-spacing="1">CARTES</text>
  <text x="366" y="44" fill="#1B2559" opacity="0.4" font-size="18">⊞</text>

  <!-- Section Tutoriel -->
  <text x="24" y="106" fill="#1B2559" opacity="0.4" font-size="11" font-weight="600" letter-spacing="2">TUTORIEL</text>

  <!-- Card 01 - 2 stars -->
  <rect x="24" y="118" width="104" height="118" rx="14" fill="#ffffff" stroke="#e0e0e8" stroke-width="1"/>
  <rect x="24" y="118" width="104" height="5" rx="2" fill="#2E9E6B" opacity="0.6"/>
  <text x="76" y="160" text-anchor="middle" fill="#1B2559" opacity="0.25" font-size="10" letter-spacing="1">CARTE</text>
  <text x="76" y="188" text-anchor="middle" fill="#1B2559" font-size="30" font-weight="200">01</text>
  <text x="76" y="214" text-anchor="middle" fill="#FFB800" font-size="15">★★☆</text>
  <text x="76" y="228" text-anchor="middle" fill="#2E9E6B" font-size="10" font-weight="600">3:12</text>

  <!-- Card 02 - 1 star -->
  <rect x="143" y="118" width="104" height="118" rx="14" fill="#ffffff" stroke="#e0e0e8" stroke-width="1"/>
  <rect x="143" y="118" width="104" height="5" rx="2" fill="#3A6FD8" opacity="0.6"/>
  <text x="195" y="160" text-anchor="middle" fill="#1B2559" opacity="0.25" font-size="10" letter-spacing="1">CARTE</text>
  <text x="195" y="188" text-anchor="middle" fill="#1B2559" font-size="30" font-weight="200">02</text>
  <text x="195" y="214" text-anchor="middle" fill="#FFB800" font-size="15">★☆☆</text>
  <text x="195" y="228" text-anchor="middle" fill="#3A6FD8" font-size="10" font-weight="600">5:40</text>

  <!-- Card 03 - locked -->
  <rect x="262" y="118" width="104" height="118" rx="14" fill="#f0f0f4" stroke="#e0e0e8" stroke-width="1"/>
  <text x="314" y="178" text-anchor="middle" fill="#1B2559" opacity="0.2" font-size="30">🔒</text>
  <text x="314" y="218" text-anchor="middle" fill="#1B2559" opacity="0.2" font-size="30" font-weight="200">03</text>

  <!-- Section Avancé -->
  <text x="24" y="276" fill="#1B2559" opacity="0.4" font-size="11" font-weight="600" letter-spacing="2">AVANCÉ</text>

  <!-- Card 04 - 3 stars -->
  <rect x="24" y="288" width="104" height="118" rx="14" fill="#ffffff" stroke="#e0e0e8" stroke-width="1"/>
  <rect x="24" y="288" width="104" height="5" rx="2" fill="#FF5630"/>
  <text x="76" y="330" text-anchor="middle" fill="#1B2559" opacity="0.25" font-size="10" letter-spacing="1">CARTE</text>
  <text x="76" y="358" text-anchor="middle" fill="#1B2559" font-size="30" font-weight="200">04</text>
  <text x="76" y="384" text-anchor="middle" fill="#FFB800" font-size="15">★★★</text>
  <text x="76" y="398" text-anchor="middle" fill="#FF5630" font-size="10" font-weight="600">2:58</text>

  <!-- Card 05 - locked -->
  <rect x="143" y="288" width="104" height="118" rx="14" fill="#f0f0f4" stroke="#e0e0e8" stroke-width="1"/>
  <text x="195" y="348" text-anchor="middle" fill="#1B2559" opacity="0.2" font-size="30">🔒</text>
  <text x="195" y="388" text-anchor="middle" fill="#1B2559" opacity="0.2" font-size="30" font-weight="200">05</text>

  <!-- Card 06 - locked -->
  <rect x="262" y="288" width="104" height="118" rx="14" fill="#f0f0f4" stroke="#e0e0e8" stroke-width="1"/>
  <text x="314" y="348" text-anchor="middle" fill="#1B2559" opacity="0.2" font-size="30">🔒</text>
  <text x="314" y="388" text-anchor="middle" fill="#1B2559" opacity="0.2" font-size="30" font-weight="200">06</text>

  <!-- Section Expert -->
  <text x="24" y="448" fill="#1B2559" opacity="0.4" font-size="11" font-weight="600" letter-spacing="2">EXPERT</text>

  <rect x="24" y="460" width="104" height="118" rx="14" fill="#f0f0f4" stroke="#e0e0e8" stroke-width="1"/>
  <text x="76" y="520" text-anchor="middle" fill="#1B2559" opacity="0.2" font-size="30">🔒</text>
  <text x="76" y="560" text-anchor="middle" fill="#1B2559" opacity="0.2" font-size="30" font-weight="200">07</text>

  <rect x="143" y="460" width="104" height="118" rx="14" fill="#f0f0f4" stroke="#e0e0e8" stroke-width="1"/>
  <text x="195" y="520" text-anchor="middle" fill="#1B2559" opacity="0.2" font-size="30">🔒</text>
  <text x="195" y="560" text-anchor="middle" fill="#1B2559" opacity="0.2" font-size="30" font-weight="200">08</text>

  <rect x="262" y="460" width="104" height="118" rx="14" fill="#f0f0f4" stroke="#e0e0e8" stroke-width="1"/>
  <text x="314" y="520" text-anchor="middle" fill="#1B2559" opacity="0.2" font-size="30">🔒</text>
  <text x="314" y="560" text-anchor="middle" fill="#1B2559" opacity="0.2" font-size="30" font-weight="200">09</text>

  <!-- Bottom bar -->
  <rect x="0" y="800" width="390" height="44" fill="#ffffff"/>
  <rect x="0" y="800" width="390" height="1" fill="#e0e0e8"/>
  <text x="195" y="827" text-anchor="middle" fill="#1B2559" opacity="0.35" font-size="12" letter-spacing="1">4 cartes terminées  ·  ★ 8 / 27</text>
  <rect x="155" y="836" width="80" height="4" rx="2" fill="#1a1a2e" opacity="0.12"/>
</svg>
