<svg width="390" height="844" viewBox="0 0 390 844" xmlns="http://www.w3.org/2000/svg" font-family="system-ui, -apple-system, sans-serif">
  <rect width="390" height="844" fill="#f5f5f7"/>

  <!-- Header -->
  <rect width="390" height="72" fill="#ffffff"/>
  <rect x="0" y="71" width="390" height="1" fill="#e0e0e8"/>
  <text x="24" y="44" fill="#1B2559" opacity="0.5" font-size="22">‹</text>
  <text x="195" y="44" text-anchor="middle" fill="#1B2559" font-size="16" font-weight="700" letter-spacing="1">MENU</text>

  <!-- Options row -->
  <rect x="16" y="104" width="358" height="80" rx="16" fill="#ffffff"/>
  <rect x="16" y="104" width="358" height="80" rx="16" fill="none" stroke="#e0e0e8" stroke-width="1"/>
  <!-- Icon bg -->
  <rect x="32" y="120" width="48" height="48" rx="12" fill="#EEF4FF"/>
  <text x="56" y="150" text-anchor="middle" fill="#3A6FD8" font-size="22">⚙</text>
  <!-- Text -->
  <text x="100" y="136" fill="#1B2559" font-size="16" font-weight="600">Options</text>
  <text x="100" y="158" fill="#1B2559" opacity="0.4" font-size="13">Son, vibrations, langue</text>
  <!-- Arrow -->
  <text x="352" y="148" text-anchor="end" fill="#1B2559" opacity="0.25" font-size="20">›</text>

  <!-- Hauts faits row -->
  <rect x="16" y="200" width="358" height="80" rx="16" fill="#ffffff"/>
  <rect x="16" y="200" width="358" height="80" rx="16" fill="none" stroke="#e0e0e8" stroke-width="1"/>
  <rect x="32" y="216" width="48" height="48" rx="12" fill="#FFF8EC"/>
  <text x="56" y="246" text-anchor="middle" fill="#FFB800" font-size="22">★</text>
  <text x="100" y="232" fill="#1B2559" font-size="16" font-weight="600">Hauts faits</text>
  <text x="100" y="254" fill="#1B2559" opacity="0.4" font-size="13">12 / 40 débloqués</text>
  <!-- Progress pill -->
  <rect x="260" y="232" width="72" height="20" rx="10" fill="#FFF8EC"/>
  <text x="296" y="246" text-anchor="middle" fill="#FFB800" font-size="11" font-weight="600">30 %</text>
  <text x="352" y="248" text-anchor="end" fill="#1B2559" opacity="0.25" font-size="20">›</text>

  <!-- À propos row -->
  <rect x="16" y="296" width="358" height="80" rx="16" fill="#ffffff"/>
  <rect x="16" y="296" width="358" height="80" rx="16" fill="none" stroke="#e0e0e8" stroke-width="1"/>
  <rect x="32" y="312" width="48" height="48" rx="12" fill="#F0FBF6"/>
  <text x="56" y="342" text-anchor="middle" fill="#2E9E6B" font-size="22">ℹ</text>
  <text x="100" y="328" fill="#1B2559" font-size="16" font-weight="600">À propos</text>
  <text x="100" y="350" fill="#1B2559" opacity="0.4" font-size="13">Version, crédits, licences</text>
  <text x="352" y="344" text-anchor="end" fill="#1B2559" opacity="0.25" font-size="20">›</text>

  <!-- Divider -->
  <line x1="16" y1="412" x2="374" y2="412" stroke="#e0e0e8" stroke-width="1"/>

  <!-- Cartes row (bonus) -->
  <rect x="16" y="428" width="358" height="80" rx="16" fill="#ffffff"/>
  <rect x="16" y="428" width="358" height="80" rx="16" fill="none" stroke="#e0e0e8" stroke-width="1"/>
  <rect x="32" y="444" width="48" height="48" rx="12" fill="#FEF0EC"/>
  <text x="56" y="474" text-anchor="middle" fill="#FF5630" font-size="22">▦</text>
  <text x="100" y="460" fill="#1B2559" font-size="16" font-weight="600">Cartes</text>
  <text x="100" y="482" fill="#1B2559" opacity="0.4" font-size="13">Sélectionner un niveau</text>
  <text x="352" y="476" text-anchor="end" fill="#1B2559" opacity="0.25" font-size="20">›</text>

  <!-- Logo small at bottom -->
  <circle cx="195" cy="700" r="30" fill="#ffffff" stroke="#e8e8f0" stroke-width="1"/>
  <line x1="195" y1="700" x2="208" y2="689" stroke="#FF5630" stroke-width="4" stroke-linecap="round"/>
  <circle cx="208" cy="689" r="4" fill="#FF5630"/>
  <line x1="195" y1="700" x2="195" y2="676" stroke="#3A6FD8" stroke-width="3" stroke-linecap="round"/>
  <circle cx="195" cy="676" r="3.5" fill="#3A6FD8"/>
  <line x1="195" y1="700" x2="179" y2="719" stroke="#2E9E6B" stroke-width="2" stroke-linecap="round"/>
  <circle cx="179" cy="719" r="2.5" fill="#2E9E6B"/>
  <circle cx="195" cy="700" r="5" fill="#ffffff" stroke="#1B2559" stroke-width="2"/>

  <text x="195" y="754" text-anchor="middle" fill="#1B2559" opacity="0.25" font-size="12" letter-spacing="1">tickwire  ·  v1.0</text>

  <rect x="155" y="824" width="80" height="4" rx="2" fill="#1a1a2e" opacity="0.12"/>
</svg>
